<svg width="297" height="264" viewBox="0 0 297 264" fill="none" xmlns="http://www.w3.org/2000/svg">
<path d="M113 114.5L129 94L138.5 96V110.5L116.5 132.5L113 130V114.5Z" fill="#3DDB91"/>
<path fill-rule="evenodd" clip-rule="evenodd" d="M96.3778 1.75C95.5518 2.712 94.5268 4.109 94.1008 4.853C93.3348 6.189 91.0908 28.051 89.7188 47.536C89.1738 55.274 88.5378 58.25 86.9388 60.536C83.9708 64.779 77.7588 79.153 74.8538 88.5C72.8388 94.98 72.3548 98.685 72.3028 108C72.2248 122.13 74.0368 130.218 80.0308 142.5C89.6758 162.264 105.187 175.481 126.571 182.158C133.067 184.186 136.08 184.495 149.071 184.465C162.634 184.433 164.837 184.172 172.071 181.747C192.111 175.028 210.42 158.315 218.472 139.391C226.904 119.578 226.281 93.363 216.935 74.661C212.15 65.085 206.808 61 199.071 61C193.102 61 189.344 62.969 182.426 69.721L176.78 75.23L171.426 73.386C163.402 70.623 153.382 70.963 147.071 74.21C144.321 75.626 141.206 77.741 140.149 78.911L138.226 81.039L147.149 89.501C153.997 95.997 156.536 97.827 158.071 97.377C159.171 97.055 161.646 96.57 163.571 96.299C166.433 95.897 169.44 93.464 180.071 82.953C193.088 70.082 196.994 67.395 200.953 68.587C209.512 71.164 216.631 88.913 216.762 108C216.899 127.874 210.782 142.765 196.589 157.11C189.685 164.088 186.461 166.503 179.571 169.855C168.15 175.411 160.12 177.361 148.571 177.383C136.683 177.406 130.464 175.954 119.071 170.495C92.7378 157.879 78.1258 133.3 79.8428 104.511C80.7658 89.051 86.7658 75.062 95.6998 67.545C98.2858 65.369 99.7018 65 105.464 65C109.171 65 114.675 64.543 117.695 63.985C120.716 63.426 128.336 62.577 134.629 62.098C147.591 61.111 150.932 59.958 152.617 55.89C154.375 51.644 153.316 49.226 145.975 40.724C139.279 32.97 136.492 31.479 133.771 34.2C130.967 37.004 132.394 40.764 137.947 45.203C143.217 49.416 146.135 52.769 145.278 53.627C145.04 53.864 139.721 54.321 133.458 54.641C121.87 55.233 103.975 53.804 102.325 52.154C99.6798 49.509 98.6688 32.763 100.138 15.921L100.87 7.531L107.471 14.638C114.729 22.453 117.475 23.953 119.966 21.463C123.218 18.21 121.926 15.683 112.923 7.684C105.976 1.511 103.647 0 101.078 0C99.2718 0 97.2268 0.762 96.3778 1.75ZM122.698 95.709C109.113 110.203 107.071 114.032 107.071 125C107.071 132.079 107.489 134.329 109.571 138.456C112.914 145.081 121.827 154.059 128.582 157.605C133.408 160.138 135.098 160.482 142.571 160.447C149.28 160.416 151.937 159.955 155.181 158.255C161.427 154.983 182.571 134.986 182.571 132.35C182.571 131.511 173.667 122.575 167.38 117.104L164.689 114.762L161.995 116.881C158.287 119.798 154.961 119.544 151.494 116.077C148.069 112.652 147.769 109.289 150.571 105.727C151.671 104.329 152.571 102.773 152.571 102.27C152.571 100.723 135.914 85 134.275 85C133.428 85 128.218 89.819 122.698 95.709ZM178.235 92.903C173.203 98.115 171.569 100.503 171.565 102.653C171.561 104.219 170.923 106.719 170.145 108.209C168.751 110.881 168.849 111.033 177.209 119.209C181.871 123.769 186.287 127.636 187.022 127.803C190.444 128.578 195.656 116.654 195.898 107.5C196.137 98.427 190.802 86 186.667 86C185.695 86 181.9 89.106 178.235 92.903ZM137.146 99.81C137.554 100.739 137.771 101.95 137.628 102.5C137.485 103.05 137.076 105.3 136.719 107.5C136.16 110.951 134.642 112.85 125.659 121.337C114.049 132.307 113.428 132.368 113.428 122.55C113.428 115.485 115.285 112.124 124.336 102.805C131.551 95.377 131.89 95.163 134.107 96.615C135.37 97.443 136.737 98.88 137.146 99.81ZM17.6688 146.044C8.09775 149.303 0.155751 152.089 0.0197512 152.235C-0.116249 152.381 0.464753 154.224 1.31075 156.33C2.39075 159.019 3.32875 160.023 4.45975 159.698C5.34575 159.444 10.4588 157.648 15.8208 155.708C21.1828 153.768 25.5708 152.311 25.5708 152.471C25.5708 152.631 21.7278 156.513 17.0298 161.098C10.9998 166.984 8.57375 170.032 8.77975 171.467C9.05175 173.37 9.70975 173.488 19.0708 173.318C24.5708 173.218 30.3308 172.887 31.8708 172.583C36.4238 171.684 34.1567 173.547 24.0457 179.014C18.8347 181.831 14.5708 184.345 14.5708 184.6C14.5708 184.855 15.2418 186.671 16.0628 188.636L17.5548 192.207L21.1698 190.074C23.1578 188.901 30.0238 185.055 36.4278 181.527C52.4358 172.707 51.7688 173.348 49.8438 168.634L48.2648 164.769L35.9178 165.18C29.1268 165.406 23.5708 165.558 23.5708 165.519C23.5708 165.479 27.2238 161.729 31.6888 157.186C39.1588 149.584 39.7558 148.677 39.1828 145.808C38.5608 142.702 36.8917 139.947 35.6987 140.059C35.3527 140.091 27.2398 142.784 17.6688 146.044ZM257.947 143.642C256.053 148.176 256.63 150.614 261.671 159.388C263.848 163.176 265.41 166.494 265.143 166.761C264.876 167.029 261.647 166.042 257.968 164.569C254.289 163.097 250.903 162.268 250.444 162.727C249.984 163.187 249.335 164.928 249.002 166.597L248.395 169.632L265.478 176.816C274.873 180.767 282.992 184 283.519 184C284.348 184 286.901 176.997 286.293 176.389C286.17 176.266 282.695 174.617 278.57 172.724L271.071 169.283L275.571 168.11C278.046 167.464 282.996 165.901 286.571 164.634C292.654 162.48 293.195 162.034 295.001 157.679C296.062 155.12 296.704 152.799 296.427 152.522C296.149 152.245 290.595 153.808 284.083 155.996C274.743 159.134 271.943 159.724 270.819 158.791C270.036 158.141 267.405 153.647 264.973 148.804C262.541 143.962 260.307 140 260.01 140C259.712 140 258.784 141.639 257.947 143.642ZM45.5418 195.75C38.3968 202.762 32.5548 208.981 32.5608 209.569C32.5658 210.157 35.6318 213.952 39.3738 218.002C46.4568 225.669 48.2567 226.325 50.5347 222.066C51.4717 220.317 51.0457 219.386 47.6007 215.648C45.3837 213.244 43.5708 210.843 43.5708 210.312C43.5708 209.782 44.7037 208.284 46.0887 206.983L48.6058 204.618L52.8758 208.809C55.2248 211.114 57.6818 213 58.3358 213C58.9898 213 60.2787 211.849 61.1997 210.443C62.8517 207.922 62.8147 207.824 58.5317 203.461L54.1887 199.035L56.5538 196.518C59.8188 193.042 61.4488 193.341 65.6128 198.176C69.4248 202.601 71.5088 202.853 73.5008 199.13C74.4178 197.417 73.6308 196.186 67.7098 190.074C63.9408 186.183 60.3348 183 59.6948 183C59.0558 183 52.6868 188.738 45.5418 195.75ZM235.782 185.081C227.952 187.453 221.64 198.335 223.171 206.82C224.03 211.585 224.981 213.341 229.277 218.096C233.445 222.709 241.296 225.517 247.022 224.443C255.314 222.888 262.571 213.884 262.571 205.152C262.571 197.696 257.895 189.82 251.477 186.466C247.906 184.599 239.747 183.879 235.782 185.081ZM247.665 194.549C255.745 198.727 256.842 210.046 249.581 214.335C246.019 216.439 243.297 216.438 238.854 214.33C234.35 212.193 231.579 207.629 231.575 202.339C231.568 194.666 239.999 190.584 247.665 194.549ZM72.1548 221.062C67.3188 230.446 63.5267 238.289 63.7277 238.49C65.3257 240.089 76.1668 244.925 79.3618 245.465C94.9348 248.096 107.104 230.411 99.2917 216.5C96.9487 212.329 85.8728 204 82.6688 204C81.4528 204 78.3728 208.999 72.1548 221.062ZM88.9018 216.045C97.1908 222.566 91.9038 237.024 81.2438 236.985C73.5198 236.956 73.4258 236.253 79.5658 224.509C82.5888 218.729 85.3398 214 85.6808 214C86.0218 214 87.4708 214.92 88.9018 216.045ZM189.714 215.493C178.614 218.956 173.271 232.254 178.461 243.5C187.214 262.464 215.516 256.069 215.565 235.116C215.585 226.544 208.458 217.216 200.322 215.168C194.834 213.786 195.226 213.774 189.714 215.493ZM118.113 220.932C117.585 221.787 114.655 234.245 111.046 250.988C110.276 254.556 109.967 257.771 110.359 258.133C110.751 258.494 112.489 259.088 114.221 259.452L117.372 260.115L120.959 245.058C125.291 226.879 126.054 222.403 124.929 221.764C122.86 220.588 118.643 220.074 118.113 220.932ZM201.454 224.631C206.092 227.879 208.195 238.236 205.111 242.64C203.013 245.635 198.227 247.346 194.107 246.573C187.501 245.333 182.813 235.658 185.581 228.976C187.857 223.482 196.454 221.128 201.454 224.631ZM134.095 228.153C133.75 230.544 133.604 239.475 133.77 248L134.071 263.5L143.571 263.426C155.013 263.337 158.826 261.786 160.566 256.514C162.152 251.708 161.013 247.491 157.356 244.629C154.408 242.321 154.355 242.146 155.933 239.894C158.531 236.184 158.069 229.817 154.992 226.924C152.741 224.808 151.287 224.456 143.568 224.153L134.723 223.807L134.095 228.153ZM147.637 231.035C149.799 232.192 150.208 235.963 148.371 237.8C147.711 238.46 146.136 239 144.871 239C142.812 239 142.571 238.529 142.571 234.5C142.571 229.704 143.703 228.93 147.637 231.035ZM150.006 247.975C151.777 248.649 152.571 249.694 152.571 251.353C152.571 254.394 150.709 255.941 146.16 256.679L142.571 257.262V252.131C142.571 247.361 142.742 247 145.006 247C146.345 247 148.595 247.439 150.006 247.975Z" fill="black"/>
</svg>
